<svg width="91" height="91" viewBox="0 0 91 91" fill="none" xmlns="http://www.w3.org/2000/svg">
<g id="css">
<path id="Vector" d="M45.8901 90.7656L9.13574 81.7689L0.94519 0.765625H90.9452L82.746 81.7562L45.8901 90.7656Z" fill="#264DE4"/>
<path id="Vector_2" d="M75.7265 76.5991L82.7333 7.38892H45.9452V83.8793L75.7265 76.5991Z" fill="#2965F1"/>
<path id="Vector_3" d="M19.7219 37.4319L20.7317 47.3665H45.9452V37.4319H19.7219Z" fill="#EBEBEB"/>
<path id="Vector_4" d="M17.6927 17.3237L18.717 27.2586H45.9452V17.3237H17.6927Z" fill="#EBEBEB"/>
<path id="Vector_5" d="M45.9452 63.2334L45.8958 63.245L33.3476 60.2574L32.5455 52.334H21.2351L22.8136 67.9329L45.8933 73.5824L45.9452 73.5697V63.2334Z" fill="#EBEBEB"/>
<path id="Vector_6" d="M72.0964 37.4319L74.1304 17.3237H45.9062V27.2586H61.7827L60.7575 37.4319H45.9062V47.3665H59.7804L58.4726 60.2511L45.9062 63.2417V73.5776L69.0043 67.9329L69.1738 66.2545L71.8214 40.0996L72.0964 37.4319Z" fill="white"/>
</g>
</svg>
