<svg width="91" height="91" viewBox="0 0 91 91" fill="none" xmlns="http://www.w3.org/2000/svg">
<path id="git" d="M89.1668 41.9245L49.863 2.63397C49.3255 2.09417 48.6867 1.66586 47.9833 1.37361C47.2799 1.08135 46.5257 0.930908 45.764 0.930908C45.0023 0.930908 44.2481 1.08135 43.5447 1.37361C42.8413 1.66586 42.2025 2.09417 41.665 2.63397L33.5138 10.8107L43.8667 21.1429C45.0878 20.7293 46.4004 20.6669 47.6552 20.9627C48.9099 21.2585 50.0565 21.9006 50.9644 22.8161C51.8723 23.7316 52.5051 24.8836 52.7907 26.141C53.0764 27.3984 53.0034 28.7108 52.5801 29.9288L62.5349 39.8862C64.0235 39.3727 65.6431 39.3849 67.1238 39.921C68.6044 40.457 69.8567 41.4845 70.6719 42.832C71.4871 44.1796 71.8159 45.766 71.6036 47.3267C71.3913 48.8874 70.6507 50.3282 69.5051 51.4089C68.3596 52.4896 66.8784 53.145 65.3083 53.2658C63.7383 53.3866 62.1743 52.9656 60.877 52.0728C59.5797 51.1801 58.6274 49.8696 58.179 48.3597C57.7305 46.8499 57.8129 45.2319 58.4124 43.7754L49.1135 34.4741V58.9575C50.5231 59.659 51.6498 60.8224 52.3059 62.2539C52.9621 63.6855 53.108 65.2987 52.7194 66.8248C52.3307 68.3509 51.431 69.6977 50.1702 70.6408C48.9094 71.584 47.3635 72.0665 45.7902 72.0079C44.2168 71.9494 42.7111 71.3534 41.5237 70.3192C40.3364 69.285 39.5392 67.875 39.265 66.3243C38.9908 64.7735 39.2561 63.1756 40.0167 61.7968C40.7773 60.4179 41.9873 59.3414 43.4451 58.7466V34.0524C42.6025 33.7084 41.8364 33.2008 41.191 32.5588C40.5457 31.9169 40.034 31.1534 39.6855 30.3124C39.3371 29.4714 39.1587 28.5697 39.1607 27.6594C39.1628 26.749 39.3452 25.8481 39.6974 25.0087L29.5084 14.8171L2.57199 41.7605C1.48923 42.8455 0.881104 44.3159 0.881104 45.8489C0.881104 47.3819 1.48923 48.8523 2.57199 49.9373L41.8992 89.2278C42.4367 89.7676 43.0755 90.196 43.7789 90.4882C44.4824 90.7805 45.2365 90.9309 45.9982 90.9309C46.7599 90.9309 47.5141 90.7805 48.2175 90.4882C48.9209 90.196 49.5597 89.7676 50.0972 89.2278L89.1902 50.1013C90.273 49.0163 90.8811 47.5459 90.8811 46.0129C90.8811 44.4799 90.273 43.0095 89.1902 41.9245" fill="#F05133"/>
</svg>
