<svg width="90" height="90" viewBox="0 0 90 90" fill="none" xmlns="http://www.w3.org/2000/svg">
<g id="github">
<path id="Vector" d="M45 0C20.1375 0 0 20.1375 0 45C0 64.9125 12.8812 81.7312 30.7687 87.6937C33.0187 88.0875 33.8625 86.7375 33.8625 85.5563C33.8625 84.4875 33.8063 80.9438 33.8063 77.175C22.5 79.2563 19.575 74.4187 18.675 71.8875C18.1687 70.5937 15.975 66.6 14.0625 65.5312C12.4875 64.6875 10.2375 62.6062 14.0063 62.55C17.55 62.4937 20.0812 65.8125 20.925 67.1625C24.975 73.9687 31.4437 72.0562 34.0312 70.875C34.425 67.95 35.6063 65.9812 36.9 64.8562C26.8875 63.7312 16.425 59.85 16.425 42.6375C16.425 37.7438 18.1688 33.6937 21.0375 30.5437C20.5875 29.4187 19.0125 24.8062 21.4875 18.6187C21.4875 18.6187 25.2562 17.4375 33.8625 23.2313C37.4625 22.2188 41.2875 21.7125 45.1125 21.7125C48.9375 21.7125 52.7625 22.2188 56.3625 23.2313C64.9688 17.3813 68.7375 18.6187 68.7375 18.6187C71.2125 24.8062 69.6375 29.4187 69.1875 30.5437C72.0562 33.6937 73.8 37.6875 73.8 42.6375C73.8 59.9062 63.2813 63.7312 53.2688 64.8562C54.9 66.2625 56.3063 68.9625 56.3063 73.1813C56.3063 79.2 56.25 84.0375 56.25 85.5563C56.25 86.7375 57.0938 88.1437 59.3438 87.6937C68.2775 84.6787 76.0407 78.9375 81.5401 71.2786C87.0396 63.6197 89.9984 54.4288 90 45C90 20.1375 69.8625 0 45 0Z" fill="#F2F2F2"/>
</g>
</svg>
