<svg viewBox="0 0 100 100" fill="none" xmlns="http://www.w3.org/2000/svg">
<path d="M68.75 69.8078H31.25V90.9672H68.75V69.8078Z" fill="#333333"/>
<path d="M31.25 73.4672H53.5625L31.25 84.7765V73.4672Z" fill="black"/>
<path d="M73.7219 95.2828H26.2781C24.4375 95.2828 22.9344 93.7766 22.9344 91.9391C22.9344 90.0985 24.4406 88.5953 26.2781 88.5953H73.7188C75.5594 88.5953 77.0625 90.1016 77.0625 91.9391C77.0656 93.7766 75.5594 95.2828 73.7219 95.2828Z" fill="#999999"/>
<path d="M93.75 73.4672H6.25C2.8125 73.4672 0 70.6547 0 67.2172V10.9672C0 7.52966 2.8125 4.71716 6.25 4.71716H93.75C97.1875 4.71716 100 7.52966 100 10.9672V67.2172C100 70.6547 97.1875 73.4672 93.75 73.4672Z" fill="#D6D6D6"/>
<path d="M95.7282 9.00159H4.29065V69.1828H95.7282V9.00159Z" fill="#742FC2"/>
<path d="M23.3719 38.3359L41.3063 29.6328V33.0359L27.0813 39.6578V39.7328L41.3063 46.3922V49.7609L23.3719 41.0609V38.3359Z" fill="white"/>
<path d="M43.9313 51.2766L53.1657 23.8453H56.4188L47.1844 51.2766H43.9313Z" fill="white"/>
<path d="M76.6281 41.1359L58.6938 49.7641V46.3953L73.15 39.7359V39.6609L58.6938 33.0016V29.6328L76.6281 38.2609V41.1359Z" fill="white"/>
</svg>
