<svg width="90" height="81" viewBox="0 0 90 81" fill="none" xmlns="http://www.w3.org/2000/svg">
<g id="react">
<path id="Vector" d="M73.9981 26.8755C73.0644 26.5541 72.097 26.2501 71.1009 25.9625C71.2646 25.2943 71.4149 24.6348 71.5485 23.9865C73.7416 13.3408 72.3076 4.76454 67.4112 1.94088C62.7161 -0.766643 55.0376 2.05638 47.2827 8.80523C46.5369 9.4542 45.7891 10.1413 45.0417 10.8614C44.5436 10.385 44.0463 9.92454 43.5504 9.48416C35.423 2.26784 27.2766 -0.773212 22.3849 2.05862C17.6943 4.77399 16.3052 12.8365 18.2793 22.9255C18.47 23.9 18.6928 24.8951 18.9448 25.9069C17.7918 26.2342 16.6788 26.5831 15.6138 26.9543C6.08531 30.2764 0 35.4828 0 40.8833C0 46.4609 6.53259 52.0554 16.4572 55.4476C17.2404 55.7153 18.0531 55.9684 18.8906 56.2087C18.6188 57.303 18.3823 58.3754 18.1838 59.4213C16.3015 69.3352 17.7715 77.2072 22.4496 79.9055C27.2817 82.692 35.3913 79.8278 43.288 72.9251C43.9121 72.3795 44.5385 71.8008 45.166 71.1943C45.9793 71.9775 46.7913 72.7188 47.5991 73.414C55.2479 79.9961 62.8024 82.654 67.4762 79.9482C72.3035 77.1537 73.8723 68.6973 71.8355 58.4087C71.68 57.6229 71.499 56.8202 71.2957 56.0032C71.8652 55.8348 72.4243 55.661 72.9694 55.4803C83.287 52.0618 90 46.5354 90 40.8833C90 35.4633 83.7184 30.2217 73.9981 26.8755ZM71.7602 51.8308C71.2681 51.9937 70.7632 52.1512 70.2486 52.3039C69.1096 48.6979 67.5723 44.8636 65.6911 40.902C67.4863 37.0348 68.9641 33.2495 70.0713 29.667C70.9919 29.9334 71.8855 30.2144 72.7466 30.5109C81.075 33.378 86.1552 37.617 86.1552 40.8833C86.1552 44.3625 80.6687 48.879 71.7602 51.8308ZM68.0638 59.1554C68.9645 63.7049 69.0931 67.8181 68.4965 71.0337C67.9605 73.923 66.8825 75.8494 65.5497 76.6209C62.7133 78.2626 56.6479 76.1286 50.1065 70.4996C49.3566 69.8543 48.6013 69.1653 47.8435 68.436C50.3795 65.6625 52.914 62.4382 55.3876 58.8573C59.7384 58.4712 63.849 57.84 67.5767 56.9783C67.7602 57.7189 67.9233 58.4452 68.0638 59.1554ZM30.683 76.3372C27.9119 77.3158 25.7049 77.3439 24.3707 76.5746C21.5318 74.9372 20.3517 68.6167 21.9615 60.1384C22.1459 59.1674 22.3654 58.17 22.6183 57.1505C26.3051 57.9658 30.3855 58.5524 34.7468 58.906C37.2371 62.41 39.8448 65.6308 42.4727 68.4509C41.8986 69.0052 41.3266 69.5329 40.7579 70.0302C37.2661 73.0824 33.7669 75.248 30.683 76.3372ZM17.7007 51.8095C13.3122 50.3095 9.68802 48.3601 7.20382 46.2328C4.97161 44.3211 3.84461 42.4233 3.84461 40.8833C3.84461 37.6061 8.73051 33.426 16.8793 30.5849C17.8681 30.2402 18.9031 29.9153 19.9773 29.6101C21.1035 33.2735 22.5808 37.1037 24.3637 40.9768C22.5578 44.9075 21.0594 48.7987 19.9222 52.5051C19.1564 52.2849 18.4145 52.0533 17.7007 51.8095ZM22.0525 22.1871C20.3611 13.5431 21.4844 7.02238 24.3111 5.38611C27.3221 3.64299 33.9801 6.12831 40.9974 12.3592C41.446 12.7575 41.8963 13.1743 42.3479 13.6056C39.733 16.4134 37.1491 19.61 34.681 23.0934C30.4482 23.4857 26.3964 24.1159 22.6712 24.9598C22.437 24.0177 22.2295 23.0921 22.0525 22.1871ZM60.8744 31.7733C59.9839 30.235 59.0696 28.7332 58.1376 27.2723C61.0091 27.6353 63.7604 28.1172 66.3441 28.7069C65.5684 31.1929 64.6016 33.7921 63.4635 36.4567C62.6472 34.9067 61.7837 33.344 60.8744 31.7733ZM45.0429 16.3533C46.8163 18.2746 48.5923 20.4196 50.3391 22.747C48.5788 22.6639 46.7968 22.6206 45 22.6206C43.2202 22.6206 41.4513 22.6629 39.7019 22.7446C41.4505 20.4389 43.2418 18.2967 45.0429 16.3533ZM29.11 31.7998C28.2205 33.3424 27.373 34.8967 26.5695 36.4538C25.4498 33.7985 24.492 31.1874 23.7096 28.6662C26.2774 28.0916 29.0157 27.6217 31.869 27.2656C30.9238 28.7399 30.002 30.2528 29.11 31.7995V31.7998ZM31.9512 54.7752C29.0032 54.4463 26.2237 54.0007 23.6566 53.4419C24.4515 50.8757 25.4304 48.2089 26.5738 45.4964C27.3794 47.0524 28.2302 48.6073 29.1253 50.1532H29.1254C30.0371 51.7281 30.9816 53.2708 31.9512 54.7752ZM45.1493 65.6843C43.327 63.7182 41.5094 61.5433 39.7343 59.2039C41.4575 59.2715 43.2144 59.3061 45 59.3061C46.8344 59.3061 48.6479 59.2648 50.4328 59.1854C48.6802 61.5669 46.9107 63.7451 45.1493 65.6843ZM63.5002 45.3581C64.7032 48.0999 65.7172 50.7528 66.5224 53.2753C63.9129 53.8706 61.0955 54.3501 58.127 54.7064C59.0613 53.2258 59.9836 51.6981 60.8898 50.1267C61.8066 48.5369 62.6771 46.9447 63.5002 45.3581ZM57.5594 48.206C56.1526 50.6453 54.7082 52.974 53.2419 55.1721C50.5712 55.363 47.8121 55.4614 45 55.4614C42.1992 55.4614 39.4749 55.3744 36.8515 55.2041C35.3261 52.9772 33.8503 50.6416 32.4524 48.227H32.4527C31.0585 45.8188 29.7753 43.3904 28.6126 40.9756C29.775 38.5551 31.0549 36.1239 32.4411 33.7202L32.4407 33.7206C33.8306 31.3104 35.2934 28.9863 36.8047 26.7733C39.4813 26.571 42.226 26.4654 44.9998 26.4654H45C47.7863 26.4654 50.5345 26.5718 53.2103 26.7759C54.6986 28.9727 56.1514 31.2893 57.5468 33.6998C58.958 36.1374 60.2543 38.5524 61.4266 40.9209C60.2578 43.3302 58.9644 45.7695 57.5594 48.206ZM65.4907 5.27173C68.5045 7.00973 69.6765 14.0191 67.783 23.2105C67.6622 23.797 67.5262 24.3943 67.3785 24.9997C63.6446 24.1382 59.5899 23.4971 55.3448 23.0988C52.8718 19.5772 50.3091 16.3756 47.7368 13.6038C48.4284 12.9385 49.119 12.3041 49.8068 11.7055C56.4512 5.9231 62.6613 3.64011 65.4907 5.27173ZM45 32.8466C49.4385 32.8466 53.0367 36.4447 53.0367 40.8833C53.0367 45.3217 49.4385 48.92 45 48.92C40.5615 48.92 36.9633 45.3217 36.9633 40.8833C36.9633 36.4447 40.5615 32.8466 45 32.8466Z" fill="#00D8FF"/>
</g>
</svg>
