<svg width="60" height="90" viewBox="0 0 60 90" fill="none" xmlns="http://www.w3.org/2000/svg">
<g id="figma">
<path id="Vector" d="M45 60C53.2843 60 60 53.2843 60 45C60 36.7157 53.2843 30 45 30C36.7157 30 30 36.7157 30 45C30 53.2843 36.7157 60 45 60Z" fill="#19BCFE"/>
<path id="Vector_2" fill-rule="evenodd" clip-rule="evenodd" d="M15 90C23.2843 90 30 83.2843 30 75C30 72.7385 30 67.7385 30 60C23.2614 60 18.2614 60 15 60C6.71573 60 0 66.7157 0 75C0 83.2843 6.71573 90 15 90Z" fill="#09CF83"/>
<path id="Vector_3" fill-rule="evenodd" clip-rule="evenodd" d="M15 60C17.7614 60 22.7614 60 30 60V30C22.7614 30 17.7614 30 15 30C6.71573 30 0 36.7157 0 45C0 53.2843 6.71573 60 15 60Z" fill="#A259FF"/>
<path id="Vector_4" fill-rule="evenodd" clip-rule="evenodd" d="M15 30C17.7614 30 22.7614 30 30 30V0C22.7614 0 17.7614 0 15 0C6.71573 0 0 6.71573 0 15C0 23.2843 6.71573 30 15 30Z" fill="#F24E1E"/>
<path id="Vector_5" fill-rule="evenodd" clip-rule="evenodd" d="M45 30H30V0H45C53.2843 0 60 6.71573 60 15C60 23.2843 53.2843 30 45 30Z" fill="#FF7262"/>
</g>
</svg>
