<svg width="91" height="91" viewBox="0 0 91 91" fill="none" xmlns="http://www.w3.org/2000/svg">
<g id="html">
<path id="Vector" d="M90.9452 0.765625L82.746 81.7562L45.8901 90.7656L9.13574 81.7689L0.94519 0.765625H90.9452Z" fill="#E44D26"/>
<path id="Vector_2" d="M45.9452 83.8793L75.7265 76.5991L82.7333 7.38892H45.9452V83.8793Z" fill="#F16529"/>
<path id="Vector_3" d="M30.0062 27.2586H45.9452V17.3237H17.6927L17.9625 19.9891L20.7317 47.3665H45.9452V37.4319H31.0359L30.0062 27.2586Z" fill="#EBEBEB"/>
<path id="Vector_4" d="M32.5455 52.334H21.2351L22.8136 67.9329L45.8933 73.5824L45.9452 73.5697V63.2334L45.8958 63.245L33.3476 60.2574L32.5455 52.334Z" fill="#EBEBEB"/>
<path id="Vector_5" d="M45.9062 47.3665H59.7804L58.4726 60.2511L45.9062 63.2417V73.5776L69.0043 67.933L69.1738 66.2545L71.8214 40.0996L72.0964 37.4319H45.9062V47.3665Z" fill="white"/>
<path id="Vector_6" d="M45.9062 27.2343V27.2586H73.1216L73.3476 25.0255L73.861 19.9891L74.1304 17.3237H45.9062V27.2343Z" fill="white"/>
</g>
</svg>
