<svg width="80" height="80" viewBox="0 0 108 102" fill="none" xmlns="http://www.w3.org/2000/svg">
<g id="programming-logo" filter="url(#filter0_d_49_66)">
<path id="Vector" d="M70.6658 93.7489H37.3315L41.4879 72.9299L66.503 72.9238L70.6658 93.7489Z" fill="#CCD1D9"/>
<g id="Group">
<path id="Vector_2" d="M104 74.9993C104 76.1529 103.066 77.0804 101.916 77.0804H6.08134C4.93381 77.0802 4 76.1529 4 74.9991V8.33212C4 7.18166 4.93381 6.25098 6.08134 6.25098H101.916C103.066 6.25098 104 7.18166 104 8.33212V74.9993V74.9993Z" fill="#E6E9ED"/>
<path id="Vector_3" d="M70.6658 93.7488H37.3315C36.1839 93.7488 35.2501 92.8152 35.2501 91.6677C35.2501 90.5141 36.1839 89.5801 37.3315 89.5801H70.6658C71.8163 89.5801 72.7501 90.5139 72.7501 91.6677C72.7501 92.8154 71.8161 93.7488 70.6658 93.7488Z" fill="#E6E9ED"/>
</g>
<path id="Vector_4" d="M101.916 6.25098H6.08134C4.93381 6.25098 4 7.18166 4 8.33212V64.5805H104V8.33212C104 7.18166 103.066 6.25098 101.916 6.25098Z" fill="#656D78"/>
<path id="Vector_5" d="M56.0812 70.8304C56.0812 71.984 55.1504 72.9178 53.9999 72.9178C52.8495 72.9178 51.9156 71.9842 51.9156 70.8304C51.9156 69.6829 52.8495 68.7493 53.9999 68.7493C55.1504 68.7493 56.0812 69.6829 56.0812 70.8304Z" fill="#434A54"/>
<path id="Vector_6" d="M76.9157 14.5823H14.4159C13.2652 14.5823 12.3316 15.5161 12.3316 16.6665C12.3316 17.8172 13.2654 18.751 14.4159 18.751H76.9157C78.0662 18.751 79.0002 17.8172 79.0002 16.6665C79.0002 15.5161 78.066 14.5823 76.9157 14.5823Z" fill="#FC6E51"/>
<path id="Vector_7" d="M14.4159 27.0823H47.75C48.9007 27.0823 49.8314 26.1515 49.8314 25.001C49.8314 23.8474 48.9007 22.9167 47.75 22.9167H14.4159C13.2652 22.9167 12.3316 23.8474 12.3316 25.001C12.3314 26.1515 13.2652 27.0823 14.4159 27.0823Z" fill="#AC92EB"/>
<path id="Vector_8" d="M14.4159 35.4164H60.2502C61.4008 35.4164 62.3315 34.4826 62.3315 33.3321C62.3315 32.1817 61.4006 31.251 60.2502 31.251H14.4159C13.2652 31.251 12.3316 32.1817 12.3316 33.3321C12.3314 34.4826 13.2652 35.4164 14.4159 35.4164Z" fill="#48CFAD"/>
<path id="Vector_9" d="M14.4159 43.7479L43.5813 43.7511C44.7349 43.7511 45.6656 42.8172 45.6656 41.6668C45.6656 40.5163 44.7349 39.5825 43.5813 39.5825H14.4159C13.2652 39.5825 12.3316 40.5163 12.3316 41.6668C12.3314 42.8171 13.2652 43.7479 14.4159 43.7479Z" fill="#5D9CEC"/>
<path id="Vector_10" d="M68.5814 47.9163H14.4159C13.2652 47.9163 12.3316 48.8501 12.3316 49.9976C12.3316 51.1512 13.2654 52.0821 14.4159 52.0821H68.5814C69.735 52.0821 70.6658 51.1512 70.6658 50.0007C70.6658 48.8505 69.735 47.9163 68.5814 47.9163Z" fill="#FFCE54"/>
<path id="Vector_11" d="M31.0814 56.2493H14.4159C13.2652 56.2493 12.3316 57.1833 12.3316 58.3306C12.3316 59.4842 13.2654 60.4182 14.4159 60.4182H31.0816C32.2352 60.4182 33.1658 59.4844 33.1658 58.3306C33.1658 57.1833 32.235 56.2493 31.0814 56.2493Z" fill="#ED5564"/>
</g>
<defs>
<filter id="filter0_d_49_66" x="0" y="0" width="108" height="108" filterUnits="userSpaceOnUse" color-interpolation-filters="sRGB">
<feFlood flood-opacity="0" result="BackgroundImageFix"/>
<feColorMatrix in="SourceAlpha" type="matrix" values="0 0 0 0 0 0 0 0 0 0 0 0 0 0 0 0 0 0 127 0" result="hardAlpha"/>
<feOffset dy="4"/>
<feGaussianBlur stdDeviation="2"/>
<feComposite in2="hardAlpha" operator="out"/>
<feColorMatrix type="matrix" values="0 0 0 0 0 0 0 0 0 0 0 0 0 0 0 0 0 0 0.25 0"/>
<feBlend mode="normal" in2="BackgroundImageFix" result="effect1_dropShadow_49_66"/>
<feBlend mode="normal" in="SourceGraphic" in2="effect1_dropShadow_49_66" result="shape"/>
</filter>
</defs>
</svg>
